<svg xmlns="http://www.w3.org/2000/svg" width="184" height="36" viewBox="0 0 184 36">
    <defs>
        <linearGradient id="a" x1="60.846%" x2="108.203%" y1="29.602%" y2="100%">
            <stop offset="0%" stop-color="#5E52F6"/>
            <stop offset="100%" stop-color="#6EE4D7"/>
        </linearGradient>
        <linearGradient id="b" x1="97.467%" x2="40.906%" y1="83.376%" y2="0%">
            <stop offset="0%" stop-color="#5E52F6"/>
            <stop offset="100%" stop-color="#6EE4D7"/>
        </linearGradient>
    </defs>
    <g fill="none" fill-rule="nonzero">
        <path fill="url(#a)" d="M40 3.282v28.794a3.282 3.282 0 0 1-5.603 2.321L5.603 5.603A3.282 3.282 0 0 1 7.923 0h28.795A3.282 3.282 0 0 1 40 3.282z" transform="matrix(1 0 0 -1 0 35.358)"/>
        <path fill="url(#b)" d="M40 3.282v28.794a3.282 3.282 0 0 1-5.603 2.321L0 0h36.718A3.282 3.282 0 0 1 40 3.282z" transform="rotate(-180 20 17.68)"/>
        <path fill="#3A3B3F" d="M58.102 13.992H61.6c.236 0 .531-.019.885-.055a5.164 5.164 0 0 0 2.313-.872 3.988 3.988 0 0 0 1.05-1.082c.31-.456.565-1.026.764-1.71.2-.684.3-1.512.3-2.483 0-.941-.093-1.784-.278-2.527-.184-.743-.486-1.375-.907-1.897A3.985 3.985 0 0 0 64.1 2.174c-.664-.272-1.483-.408-2.457-.408h-3.54v12.226zM56 0h5.422c2.434 0 4.308.618 5.62 1.854 1.314 1.236 1.97 3.119 1.97 5.65 0 1.324-.147 2.497-.442 3.52-.295 1.022-.753 1.883-1.372 2.582-.62.698-1.41 1.232-2.368 1.6-.96.367-2.095.551-3.408.551H56V0zm23.214 8.96a3.83 3.83 0 0 0-.298-1.258 3.215 3.215 0 0 0-.686-1.026 3.226 3.226 0 0 0-2.313-.938c-.487 0-.926.085-1.317.254-.39.169-.726.4-1.007.695-.28.294-.501.636-.664 1.026-.162.39-.258.806-.287 1.247h6.572zm1.815 3.178c-.25 1.28-.804 2.244-1.66 2.891-.855.647-1.932.971-3.23.971-.915 0-1.708-.147-2.38-.441a4.69 4.69 0 0 1-1.693-1.236 5.246 5.246 0 0 1-1.029-1.898 9.123 9.123 0 0 1-.387-2.406c0-.868.133-1.662.398-2.383a5.693 5.693 0 0 1 1.118-1.876 5.07 5.07 0 0 1 1.704-1.236 5.215 5.215 0 0 1 2.158-.441c1.018 0 1.862.21 2.534.629.67.419 1.21.952 1.615 1.6.406.647.686 1.353.841 2.118a9.06 9.06 0 0 1 .188 2.185h-8.564c-.015.5.044.975.177 1.424.133.448.347.846.642 1.191.295.346.67.622 1.128.828.458.206.996.309 1.616.309.796 0 1.45-.184 1.958-.552.51-.368.845-.927 1.007-1.677h1.859zm7.28 3.62h-2.013l-4.249-11.41h2.102l3.21 9.511h.043l3.12-9.511h1.97l-4.182 11.41zM96.21 2.294h-1.88V0h1.88v2.295zm-1.88 2.053h1.88v11.41h-1.88V4.347zm14.937 11.365c-.325.191-.775.287-1.35.287-.487 0-.874-.136-1.162-.408-.288-.272-.431-.718-.431-1.335-.517.617-1.118 1.063-1.804 1.335a5.976 5.976 0 0 1-2.224.408 5.974 5.974 0 0 1-1.472-.177 3.426 3.426 0 0 1-1.206-.551 2.65 2.65 0 0 1-.807-.982c-.2-.405-.3-.894-.3-1.468 0-.647.111-1.177.333-1.589a2.89 2.89 0 0 1 .874-1.004 4.01 4.01 0 0 1 1.24-.585c.464-.132.94-.243 1.427-.33.516-.104 1.006-.181 1.471-.233a8.22 8.22 0 0 0 1.228-.22c.354-.096.635-.236.841-.42.207-.184.31-.452.31-.805 0-.412-.077-.743-.232-.993a1.592 1.592 0 0 0-.598-.574 2.434 2.434 0 0 0-.819-.265 6.2 6.2 0 0 0-.896-.066c-.797 0-1.46.15-1.992.452-.53.302-.818.872-.863 1.71h-1.88c.029-.706.176-1.301.442-1.787a3.35 3.35 0 0 1 1.062-1.18 4.463 4.463 0 0 1 1.516-.652 8.027 8.027 0 0 1 1.826-.198c.516 0 1.029.037 1.538.11.509.074.97.224 1.383.453.413.228.745.548.996.96.25.411.376.948.376 1.61v5.87c0 .442.026.766.078.972.051.206.224.309.52.309.162 0 .354-.037.575-.11v1.456zm-3.054-5.848c-.236.176-.546.305-.93.386-.383.081-.785.147-1.206.199-.42.051-.844.11-1.272.176a4.689 4.689 0 0 0-1.15.32c-.34.147-.617.357-.83.63-.215.271-.322.643-.322 1.114 0 .309.063.57.189.783.125.213.287.386.486.519.2.132.432.228.698.287.265.058.545.088.84.088.62 0 1.151-.085 1.594-.254.442-.17.804-.382 1.084-.64.28-.257.487-.537.62-.839.133-.301.199-.584.199-.85v-1.92zm5.953 2.295c.015.412.11.761.288 1.048a2 2 0 0 0 .697.684c.287.17.612.291.973.365.362.073.734.11 1.118.11.295 0 .605-.022.93-.066.324-.044.623-.125.896-.243s.498-.29.675-.519c.177-.228.265-.518.265-.871 0-.486-.184-.854-.553-1.104-.369-.25-.83-.452-1.383-.607a22.67 22.67 0 0 0-1.804-.42 9.378 9.378 0 0 1-1.803-.529 3.734 3.734 0 0 1-1.383-.96c-.37-.412-.554-.985-.554-1.721 0-.574.13-1.067.388-1.479.258-.412.59-.746.995-1.004a4.579 4.579 0 0 1 1.373-.574 6.335 6.335 0 0 1 1.515-.187c.65 0 1.247.055 1.793.165.546.11 1.029.302 1.45.574.42.272.756.64 1.006 1.104.251.463.399 1.04.443 1.732h-1.881c-.03-.368-.125-.673-.288-.916a1.882 1.882 0 0 0-.62-.585 2.82 2.82 0 0 0-.83-.32 4.282 4.282 0 0 0-.918-.1c-.28 0-.564.023-.852.067-.287.044-.55.122-.785.232-.236.11-.428.257-.576.441-.147.184-.22.423-.22.717 0 .324.113.593.342.806.229.213.52.39.874.53s.753.257 1.195.353a86 86 0 0 1 1.328.298c.472.103.933.228 1.383.375.45.147.848.342 1.195.585.347.242.627.548.841.916.214.367.321.823.321 1.368 0 .691-.144 1.265-.432 1.721a3.369 3.369 0 0 1-1.128 1.104c-.465.28-.989.474-1.571.584a9.32 9.32 0 0 1-1.738.166 8.07 8.07 0 0 1-1.814-.199 4.458 4.458 0 0 1-1.527-.65 3.323 3.323 0 0 1-1.062-1.192c-.266-.493-.414-1.093-.443-1.799h1.881z"/>
        <path fill="#3A3B3F" fill-opacity=".5" d="M56.936 24.432h4.032c.816 0 1.454.2 1.914.6.46.4.69.948.69 1.644 0 .52-.118.976-.354 1.368-.236.392-.614.66-1.134.804v.024c.248.048.45.128.606.24.156.112.28.246.372.402.092.156.16.33.204.522.044.192.078.392.102.6.016.208.028.42.036.636.008.216.028.428.06.636.032.208.078.406.138.594.06.188.15.354.27.498H62.6a.715.715 0 0 1-.162-.36 3.698 3.698 0 0 1-.054-.51l-.024-.606a4.183 4.183 0 0 0-.072-.636 6.233 6.233 0 0 0-.12-.594 1.393 1.393 0 0 0-.228-.492 1.125 1.125 0 0 0-.408-.336c-.168-.084-.392-.126-.672-.126h-2.784V33h-1.14v-8.568zm3.516 3.948c.264 0 .516-.02.756-.06.24-.04.45-.118.63-.234.18-.116.324-.272.432-.468.108-.196.162-.45.162-.762 0-.432-.12-.784-.36-1.056s-.628-.408-1.164-.408h-2.832v2.988h2.376zm8.844.924a2.087 2.087 0 0 0-.162-.684 1.748 1.748 0 0 0-.372-.558 1.745 1.745 0 0 0-1.254-.51c-.264 0-.502.046-.714.138a1.649 1.649 0 0 0-.546.378c-.152.16-.272.346-.36.558-.088.212-.14.438-.156.678h3.564zm.984 1.728c-.136.696-.436 1.22-.9 1.572-.464.352-1.048.528-1.752.528-.496 0-.926-.08-1.29-.24a2.543 2.543 0 0 1-.918-.672 2.855 2.855 0 0 1-.558-1.032 4.973 4.973 0 0 1-.21-1.308c0-.472.072-.904.216-1.296.144-.392.346-.732.606-1.02a2.75 2.75 0 0 1 2.094-.912c.552 0 1.01.114 1.374.342.364.228.656.518.876.87.22.352.372.736.456 1.152.084.416.118.812.102 1.188h-4.644c-.008.272.024.53.096.774.072.244.188.46.348.648.16.188.364.338.612.45.248.112.54.168.876.168.432 0 .786-.1 1.062-.3.276-.2.458-.504.546-.912h1.008zm1.776.012c.008.224.06.414.156.57.096.156.222.28.378.372a1.7 1.7 0 0 0 .528.198c.196.04.398.06.606.06.16 0 .328-.012.504-.036.176-.024.338-.068.486-.132a.913.913 0 0 0 .366-.282.752.752 0 0 0 .144-.474c0-.264-.1-.464-.3-.6-.2-.136-.45-.246-.75-.33-.3-.084-.626-.16-.978-.228a5.074 5.074 0 0 1-.978-.288c-.3-.124-.55-.298-.75-.522-.2-.224-.3-.536-.3-.936 0-.312.07-.58.21-.804.14-.224.32-.406.54-.546.22-.14.468-.244.744-.312.276-.068.55-.102.822-.102.352 0 .676.03.972.09.296.06.558.164.786.312.228.148.41.348.546.6.136.252.216.566.24.942h-1.02a1.032 1.032 0 0 0-.156-.498 1.021 1.021 0 0 0-.336-.318 1.527 1.527 0 0 0-.45-.174 2.316 2.316 0 0 0-.498-.054c-.152 0-.306.012-.462.036a1.556 1.556 0 0 0-.426.126.858.858 0 0 0-.312.24c-.08.1-.12.23-.12.39 0 .176.062.322.186.438.124.116.282.212.474.288.192.076.408.14.648.192.24.052.48.106.72.162.256.056.506.124.75.204.244.08.46.186.648.318s.34.298.456.498c.116.2.174.448.174.744 0 .376-.078.688-.234.936-.156.248-.36.448-.612.6a2.558 2.558 0 0 1-.852.318c-.316.06-.63.09-.942.09-.344 0-.672-.036-.984-.108a2.414 2.414 0 0 1-.828-.354 1.805 1.805 0 0 1-.576-.648c-.144-.268-.224-.594-.24-.978h1.02zm6.12-1.14c0 .376.05.71.15 1.002.1.292.238.536.414.732.176.196.382.346.618.45.236.104.486.156.75.156s.514-.052.75-.156c.236-.104.442-.254.618-.45s.314-.44.414-.732c.1-.292.15-.626.15-1.002s-.05-.71-.15-1.002a2.162 2.162 0 0 0-.414-.738 1.763 1.763 0 0 0-.618-.456 1.84 1.84 0 0 0-.75-.156 1.84 1.84 0 0 0-.75.156 1.763 1.763 0 0 0-.618.456c-.176.2-.314.446-.414.738-.1.292-.15.626-.15 1.002zm-1.08 0c0-.456.064-.882.192-1.278s.32-.74.576-1.032c.256-.292.572-.522.948-.69a3.148 3.148 0 0 1 1.296-.252c.496 0 .93.084 1.302.252.372.168.686.398.942.69.256.292.448.636.576 1.032.128.396.192.822.192 1.278 0 .456-.064.88-.192 1.272s-.32.734-.576 1.026c-.256.292-.57.52-.942.684-.372.164-.806.246-1.302.246-.488 0-.92-.082-1.296-.246a2.65 2.65 0 0 1-.948-.684 2.903 2.903 0 0 1-.576-1.026 4.075 4.075 0 0 1-.192-1.272zM89.456 33h-.96v-.984h-.024c-.216.384-.492.666-.828.846-.336.18-.732.27-1.188.27-.408 0-.748-.054-1.02-.162a1.626 1.626 0 0 1-.66-.462 1.739 1.739 0 0 1-.354-.714 3.84 3.84 0 0 1-.102-.918v-4.08h1.02v4.2c0 .384.112.688.336.912.224.224.532.336.924.336.312 0 .582-.048.81-.144.228-.096.418-.232.57-.408.152-.176.266-.382.342-.618.076-.236.114-.494.114-.774v-3.504h1.02V33zm1.5-6.204h.96v1.308h.024c.248-.504.552-.876.912-1.116.36-.24.816-.352 1.368-.336v1.08c-.408 0-.756.056-1.044.168-.288.112-.52.276-.696.492a2.036 2.036 0 0 0-.384.786c-.08.308-.12.662-.12 1.062V33h-1.02v-6.204zm8.244 1.992c-.08-.392-.248-.696-.504-.912-.256-.216-.6-.324-1.032-.324-.368 0-.676.068-.924.204a1.647 1.647 0 0 0-.594.54 2.272 2.272 0 0 0-.318.774 4.22 4.22 0 0 0-.096.906c0 .288.034.568.102.84.068.272.174.514.318.726.144.212.332.382.564.51.232.128.508.192.828.192.504 0 .898-.132 1.182-.396.284-.264.458-.636.522-1.116h1.044c-.112.768-.398 1.36-.858 1.776-.46.416-1.086.624-1.878.624-.472 0-.89-.076-1.254-.228a2.432 2.432 0 0 1-.912-.648 2.803 2.803 0 0 1-.552-1.002 4.18 4.18 0 0 1-.186-1.278c0-.464.06-.898.18-1.302s.302-.756.546-1.056c.244-.3.55-.536.918-.708.368-.172.796-.258 1.284-.258.352 0 .682.042.99.126.308.084.58.214.816.39.236.176.43.398.582.666.152.268.248.586.288.954H99.2zm6.54.516a2.087 2.087 0 0 0-.162-.684 1.748 1.748 0 0 0-.372-.558 1.745 1.745 0 0 0-1.254-.51c-.264 0-.502.046-.714.138a1.649 1.649 0 0 0-.546.378c-.152.16-.272.346-.36.558-.088.212-.14.438-.156.678h3.564zm.984 1.728c-.136.696-.436 1.22-.9 1.572-.464.352-1.048.528-1.752.528-.496 0-.926-.08-1.29-.24a2.543 2.543 0 0 1-.918-.672 2.855 2.855 0 0 1-.558-1.032 4.973 4.973 0 0 1-.21-1.308c0-.472.072-.904.216-1.296.144-.392.346-.732.606-1.02a2.75 2.75 0 0 1 2.094-.912c.552 0 1.01.114 1.374.342.364.228.656.518.876.87.22.352.372.736.456 1.152.084.416.118.812.102 1.188h-4.644c-.008.272.024.53.096.774.072.244.188.46.348.648.16.188.364.338.612.45.248.112.54.168.876.168.432 0 .786-.1 1.062-.3.276-.2.458-.504.546-.912h1.008zm1.776.012c.008.224.06.414.156.57.096.156.222.28.378.372a1.7 1.7 0 0 0 .528.198c.196.04.398.06.606.06.16 0 .328-.012.504-.036.176-.024.338-.068.486-.132a.913.913 0 0 0 .366-.282.752.752 0 0 0 .144-.474c0-.264-.1-.464-.3-.6-.2-.136-.45-.246-.75-.33-.3-.084-.626-.16-.978-.228a5.074 5.074 0 0 1-.978-.288c-.3-.124-.55-.298-.75-.522-.2-.224-.3-.536-.3-.936 0-.312.07-.58.21-.804.14-.224.32-.406.54-.546.22-.14.468-.244.744-.312.276-.068.55-.102.822-.102.352 0 .676.03.972.09.296.06.558.164.786.312.228.148.41.348.546.6.136.252.216.566.24.942h-1.02a1.032 1.032 0 0 0-.156-.498 1.021 1.021 0 0 0-.336-.318 1.527 1.527 0 0 0-.45-.174 2.316 2.316 0 0 0-.498-.054c-.152 0-.306.012-.462.036a1.556 1.556 0 0 0-.426.126.858.858 0 0 0-.312.24c-.08.1-.12.23-.12.39 0 .176.062.322.186.438.124.116.282.212.474.288.192.076.408.14.648.192.24.052.48.106.72.162.256.056.506.124.75.204.244.08.46.186.648.318s.34.298.456.498c.116.2.174.448.174.744 0 .376-.078.688-.234.936-.156.248-.36.448-.612.6a2.558 2.558 0 0 1-.852.318c-.316.06-.63.09-.942.09-.344 0-.672-.036-.984-.108a2.414 2.414 0 0 1-.828-.354 1.805 1.805 0 0 1-.576-.648c-.144-.268-.224-.594-.24-.978h1.02zm9.132-3.348h-1.044v-.9h1.044v-.924c0-.504.146-.886.438-1.146.292-.26.718-.39 1.278-.39.096 0 .206.008.33.024.124.016.234.04.33.072v.888a1.265 1.265 0 0 0-.288-.066 2.525 2.525 0 0 0-.288-.018c-.248 0-.44.048-.576.144-.136.096-.204.28-.204.552v.864h1.2v.9h-1.2V33h-1.02v-5.304zm3.876 2.208c0 .376.05.71.15 1.002.1.292.238.536.414.732.176.196.382.346.618.45.236.104.486.156.75.156s.514-.052.75-.156c.236-.104.442-.254.618-.45s.314-.44.414-.732c.1-.292.15-.626.15-1.002s-.05-.71-.15-1.002a2.162 2.162 0 0 0-.414-.738 1.763 1.763 0 0 0-.618-.456 1.84 1.84 0 0 0-.75-.156 1.84 1.84 0 0 0-.75.156 1.763 1.763 0 0 0-.618.456c-.176.2-.314.446-.414.738-.1.292-.15.626-.15 1.002zm-1.08 0c0-.456.064-.882.192-1.278s.32-.74.576-1.032c.256-.292.572-.522.948-.69a3.148 3.148 0 0 1 1.296-.252c.496 0 .93.084 1.302.252.372.168.686.398.942.69.256.292.448.636.576 1.032.128.396.192.822.192 1.278 0 .456-.064.88-.192 1.272s-.32.734-.576 1.026c-.256.292-.57.52-.942.684-.372.164-.806.246-1.302.246-.488 0-.92-.082-1.296-.246a2.65 2.65 0 0 1-.948-.684 2.903 2.903 0 0 1-.576-1.026 4.075 4.075 0 0 1-.192-1.272zm7.188-3.108h.96v1.308h.024c.248-.504.552-.876.912-1.116.36-.24.816-.352 1.368-.336v1.08c-.408 0-.756.056-1.044.168-.288.112-.52.276-.696.492a2.036 2.036 0 0 0-.384.786c-.08.308-.12.662-.12 1.062V33h-1.02v-6.204zM141.128 33h-1.08l-1.26-4.932h-.024L137.516 33h-1.104l-1.992-6.204h1.128l1.404 5.076h.024l1.248-5.076h1.116l1.296 5.076h.024l1.392-5.076h1.056L141.128 33zm7.26-3.696a2.087 2.087 0 0 0-.162-.684 1.748 1.748 0 0 0-.372-.558 1.745 1.745 0 0 0-1.254-.51c-.264 0-.502.046-.714.138a1.649 1.649 0 0 0-.546.378c-.152.16-.272.346-.36.558-.088.212-.14.438-.156.678h3.564zm.984 1.728c-.136.696-.436 1.22-.9 1.572-.464.352-1.048.528-1.752.528-.496 0-.926-.08-1.29-.24a2.543 2.543 0 0 1-.918-.672 2.855 2.855 0 0 1-.558-1.032 4.973 4.973 0 0 1-.21-1.308c0-.472.072-.904.216-1.296.144-.392.346-.732.606-1.02a2.75 2.75 0 0 1 2.094-.912c.552 0 1.01.114 1.374.342.364.228.656.518.876.87.22.352.372.736.456 1.152.084.416.118.812.102 1.188h-4.644c-.008.272.024.53.096.774.072.244.188.46.348.648.16.188.364.338.612.45.248.112.54.168.876.168.432 0 .786-.1 1.062-.3.276-.2.458-.504.546-.912h1.008zm1.188-6.6h1.02v3.204h.024c.168-.344.432-.594.792-.75.36-.156.756-.234 1.188-.234.48 0 .898.088 1.254.264.356.176.652.414.888.714s.414.646.534 1.038c.12.392.18.808.18 1.248 0 .44-.058.856-.174 1.248a2.938 2.938 0 0 1-.528 1.026 2.49 2.49 0 0 1-.888.69c-.356.168-.77.252-1.242.252a3.066 3.066 0 0 1-1.068-.204 2.18 2.18 0 0 1-.522-.294 1.643 1.643 0 0 1-.414-.462h-.024V33h-1.02v-8.568zm4.8 5.412c0-.288-.038-.57-.114-.846a2.283 2.283 0 0 0-.348-.738 1.705 1.705 0 0 0-.6-.516 1.822 1.822 0 0 0-.858-.192c-.344 0-.636.068-.876.204-.24.136-.436.314-.588.534-.152.22-.262.47-.33.75a3.597 3.597 0 0 0 .006 1.734c.072.284.186.534.342.75.156.216.358.39.606.522s.548.198.9.198.646-.068.882-.204a1.64 1.64 0 0 0 .57-.54 2.35 2.35 0 0 0 .312-.768c.064-.288.096-.584.096-.888zm5.652-3.048h1.02v.84h.024c.168-.344.432-.594.792-.75.36-.156.756-.234 1.188-.234.48 0 .898.088 1.254.264.356.176.652.414.888.714s.414.646.534 1.038c.12.392.18.808.18 1.248 0 .44-.058.856-.174 1.248a2.938 2.938 0 0 1-.528 1.026 2.49 2.49 0 0 1-.888.69c-.356.168-.77.252-1.242.252a3.066 3.066 0 0 1-1.068-.204 2.18 2.18 0 0 1-.522-.294 1.643 1.643 0 0 1-.414-.462h-.024v3.192h-1.02v-8.568zm4.8 3.048c0-.288-.038-.57-.114-.846a2.283 2.283 0 0 0-.348-.738 1.705 1.705 0 0 0-.6-.516 1.822 1.822 0 0 0-.858-.192c-.344 0-.636.068-.876.204-.24.136-.436.314-.588.534-.152.22-.262.47-.33.75a3.597 3.597 0 0 0 .006 1.734c.072.284.186.534.342.75.156.216.358.39.606.522s.548.198.9.198.646-.068.882-.204a1.64 1.64 0 0 0 .57-.54 2.35 2.35 0 0 0 .312-.768c.064-.288.096-.584.096-.888zm2.244-3.048h.96v1.308h.024c.248-.504.552-.876.912-1.116.36-.24.816-.352 1.368-.336v1.08c-.408 0-.756.056-1.044.168-.288.112-.52.276-.696.492a2.036 2.036 0 0 0-.384.786c-.08.308-.12.662-.12 1.062V33h-1.02v-6.204zm4.776 3.108c0 .376.05.71.15 1.002.1.292.238.536.414.732.176.196.382.346.618.45.236.104.486.156.75.156s.514-.052.75-.156c.236-.104.442-.254.618-.45s.314-.44.414-.732c.1-.292.15-.626.15-1.002s-.05-.71-.15-1.002a2.162 2.162 0 0 0-.414-.738 1.763 1.763 0 0 0-.618-.456 1.84 1.84 0 0 0-.75-.156 1.84 1.84 0 0 0-.75.156 1.763 1.763 0 0 0-.618.456c-.176.2-.314.446-.414.738-.1.292-.15.626-.15 1.002zm-1.08 0c0-.456.064-.882.192-1.278s.32-.74.576-1.032c.256-.292.572-.522.948-.69a3.148 3.148 0 0 1 1.296-.252c.496 0 .93.084 1.302.252.372.168.686.398.942.69.256.292.448.636.576 1.032.128.396.192.822.192 1.278 0 .456-.064.88-.192 1.272s-.32.734-.576 1.026c-.256.292-.57.52-.942.684-.372.164-.806.246-1.302.246-.488 0-.92-.082-1.296-.246a2.65 2.65 0 0 1-.948-.684 2.903 2.903 0 0 1-.576-1.026 4.075 4.075 0 0 1-.192-1.272zm7.848 1.14c.008.224.06.414.156.57.096.156.222.28.378.372a1.7 1.7 0 0 0 .528.198c.196.04.398.06.606.06.16 0 .328-.012.504-.036.176-.024.338-.068.486-.132a.913.913 0 0 0 .366-.282.752.752 0 0 0 .144-.474c0-.264-.1-.464-.3-.6-.2-.136-.45-.246-.75-.33-.3-.084-.626-.16-.978-.228a5.074 5.074 0 0 1-.978-.288c-.3-.124-.55-.298-.75-.522-.2-.224-.3-.536-.3-.936 0-.312.07-.58.21-.804.14-.224.32-.406.54-.546.22-.14.468-.244.744-.312.276-.068.55-.102.822-.102.352 0 .676.03.972.09.296.06.558.164.786.312.228.148.41.348.546.6.136.252.216.566.24.942h-1.02a1.032 1.032 0 0 0-.156-.498 1.021 1.021 0 0 0-.336-.318 1.527 1.527 0 0 0-.45-.174 2.316 2.316 0 0 0-.498-.054c-.152 0-.306.012-.462.036a1.556 1.556 0 0 0-.426.126.858.858 0 0 0-.312.24c-.08.1-.12.23-.12.39 0 .176.062.322.186.438.124.116.282.212.474.288.192.076.408.14.648.192.24.052.48.106.72.162.256.056.506.124.75.204.244.08.46.186.648.318s.34.298.456.498c.116.2.174.448.174.744 0 .376-.078.688-.234.936-.156.248-.36.448-.612.6a2.558 2.558 0 0 1-.852.318c-.316.06-.63.09-.942.09-.344 0-.672-.036-.984-.108a2.414 2.414 0 0 1-.828-.354 1.805 1.805 0 0 1-.576-.648c-.144-.268-.224-.594-.24-.978h1.02z"/>
    </g>
</svg>
