<svg xmlns="http://www.w3.org/2000/svg" width="16" height="16" viewBox="0 0 16 16">
    <path fill="#9EA0A5" fill-rule="nonzero" d="M15.25 7.937c0 1.459-.313 2.76-.938 3.907a6.756 6.756 0 0 1-2.64 2.687c-1.136.646-2.443.969-3.922.969a7.513 7.513 0 0 1-3.875-1.047 7.831 7.831 0 0 1-2.828-2.828A7.513 7.513 0 0 1 0 7.75c0-1.396.349-2.688 1.047-3.875a7.831 7.831 0 0 1 2.828-2.828A7.513 7.513 0 0 1 7.75 0c2.02 0 3.75.677 5.187 2.031l-2.093 2.031a4.159 4.159 0 0 0-2.407-1.156c-.875-.125-1.74 0-2.593.375A4.816 4.816 0 0 0 3.78 4.97c-.562.812-.844 1.74-.844 2.781 0 .896.22 1.714.657 2.453a5.116 5.116 0 0 0 1.75 1.781c.729.448 1.531.672 2.406.672.937 0 1.76-.208 2.469-.625a4.327 4.327 0 0 0 1.406-1.344 4.17 4.17 0 0 0 .531-1.375H7.75V6.625h7.375c.083.458.125.896.125 1.312z"/>
</svg>
